<svg xmlns="http://www.w3.org/2000/svg" width="248.551" height="299.994" viewBox="0 0 248.551 299.994">
  <g id="voting" transform="translate(-25.721)">
    <path id="Path_1" d="M181.985,124.5l-1.458.909,5,13.454a3.81,3.81,0,0,0,4.9,2.243l21.011-7.814a3.809,3.809,0,0,0,2.243-4.9L199.752,90.929a3.81,3.81,0,0,0-4.9-2.243l-7.587,2.822a22.127,22.127,0,0,1-5.28,32.992Z" fill="#006090"/>
    <path id="Path_2" d="M176.571,115.814a11.913,11.913,0,0,0-12.6-20.22l-17.356,10.819c-.059-11.8-.046-9.247-.106-21.107a28.254,28.254,0,0,0-28.192-28.053H54.355A28.254,28.254,0,0,0,26.162,85.305l-.441,87.524A11.913,11.913,0,0,0,37.574,184.8h.061a11.934,11.934,0,0,0,11.912-11.853c.011-2.148.438-87.126.44-87.524a2.3,2.3,0,0,1,4.6.029c0,29.865.005,200.243.005,200.243a14.3,14.3,0,1,0,28.593,0V171.424h6.172V285.7a14.3,14.3,0,1,0,28.592,0c0-53.144-.246-145.072-.259-200.244a2.493,2.493,0,0,1,4.985-.026c.021,4.207.192,38.193.213,42.446a11.925,11.925,0,0,0,18.215,10.05Z" fill="#006090"/>
    <path id="Path_3" d="M86.434,49.382A24.691,24.691,0,1,0,61.742,24.691,24.692,24.692,0,0,0,86.434,49.382Z" fill="#006090"/>
    <path id="Path_4" d="M195.2,206.231c-3.565,0-5.572,2.852-5.572,6.432,0,3.521,2.007,6.432,5.606,6.432s5.572-2.913,5.572-6.5S198.725,206.231,195.2,206.231Z" fill="#006090"/>
    <path id="Path_5" d="M262.432,152.258H147.2a11.84,11.84,0,0,0-11.84,11.84V265.75a11.84,11.84,0,0,0,11.84,11.84h6.915v17.123a5.28,5.28,0,0,0,5.28,5.28h11.54a5.28,5.28,0,0,0,5.28-5.28V277.59h57.2v17.123a5.28,5.28,0,0,0,5.28,5.28h11.54a5.28,5.28,0,0,0,5.28-5.28V277.59h6.915a11.84,11.84,0,0,0,11.84-11.84V164.1A11.84,11.84,0,0,0,262.432,152.258Zm-88.141,72.581h-5.572l-9.081-24.421h7.085l4.781,15.993,4.712-15.993h7.051Zm20.878.207a12.383,12.383,0,1,1,12.451-12.314A12.419,12.419,0,0,1,195.169,225.046Zm33.948-18.781H222.1v18.574h-6.707V206.265h-7.051v-5.847h20.775Zm19.847,18.574h-17.4V200.418h17.1v5.847H238.267v3.44h8.874v5.434h-8.874v3.853h10.7v5.847Z" fill="#006090"/>
  </g>
</svg>
